<svg width="20" height="20" viewBox="0 0 20 20" fill="none" xmlns="http://www.w3.org/2000/svg">
<path d="M19.5049 8.45893L19.404 8.0308H10.0987V11.9692H15.6585C15.0812 14.7103 12.4027 16.1531 10.2147 16.1531C8.62277 16.1531 6.94464 15.4835 5.83393 14.4071C5.24791 13.8302 4.78145 13.1433 4.46125 12.3859C4.14104 11.6284 3.97338 10.8152 3.96786 9.99286C3.96786 8.33393 4.71339 6.67455 5.79821 5.58304C6.88304 4.49152 8.52143 3.8808 10.1504 3.8808C12.0161 3.8808 13.3531 4.87143 13.8531 5.32321L16.6518 2.53929C15.8308 1.81786 13.5754 0 10.0603 0C7.34821 0 4.74777 1.03884 2.84687 2.93348C0.970982 4.79911 0 7.49688 0 10C0 12.5031 0.91875 15.0661 2.73661 16.9464C4.67902 18.9518 7.42991 20 10.2625 20C12.8397 20 15.2826 18.9902 17.0237 17.158C18.7353 15.3545 19.6205 12.8589 19.6205 10.2429C19.6205 9.14152 19.5098 8.4875 19.5049 8.45893Z" fill="#F9F9F9"/>
</svg>
