<svg width="25" height="25" viewBox="0 0 25 25" fill="none" xmlns="http://www.w3.org/2000/svg">
<path d="M12.4756 2.34375C14.6165 2.34375 16.5965 2.76041 18.4158 3.59373C20.2351 4.42705 21.6734 5.56021 22.7306 6.99316C23.7878 8.42607 24.3164 9.98911 24.3164 11.6822C24.3164 13.3753 23.7878 14.9405 22.7306 16.3779C21.6734 17.8153 20.2373 18.9506 18.4224 19.7839C16.6075 20.6172 14.6252 21.0339 12.4756 21.0339C11.7972 21.0339 11.0968 20.9854 10.3744 20.8884C7.23794 23.0665 5.56846 24.1688 5.36582 24.1952C5.2689 24.2305 5.17637 24.2261 5.08828 24.182C5.05303 24.1556 5.02661 24.1203 5.00898 24.0762C4.99136 24.0321 4.98257 23.9924 4.98257 23.9571V23.9042C5.03545 23.5603 5.43628 22.1274 6.18516 19.6054C4.48479 18.7588 3.13464 17.6367 2.13469 16.239C1.13474 14.8414 0.634766 13.3224 0.634766 11.6822C0.634766 9.98911 1.16337 8.42607 2.22059 6.99316C3.27781 5.56021 4.71606 4.42705 6.53535 3.59373C8.35464 2.76041 10.3347 2.34375 12.4756 2.34375Z" fill="#F9F9F9"/>
</svg>
