<svg width="25" height="25" viewBox="0 0 25 25" fill="none" xmlns="http://www.w3.org/2000/svg">
<path d="M2.34375 1.5625C2.1403 1.5625 1.95923 1.63981 1.80054 1.79443C1.64185 1.94906 1.5625 2.13216 1.5625 2.34375V22.6562C1.5625 22.8678 1.64185 23.0509 1.80054 23.2056C1.95923 23.3602 2.1403 23.4375 2.34375 23.4375H22.6562C22.8597 23.4375 23.0408 23.3602 23.1995 23.2056C23.3582 23.0509 23.4375 22.8678 23.4375 22.6562V2.34375C23.4375 2.13216 23.3582 1.94906 23.1995 1.79443C23.0408 1.63981 22.8597 1.5625 22.6562 1.5625H2.34375ZM6.45752 7.03125H10.6689L14.3311 12.5V7.03125H18.5425V17.9688H14.3311L10.6689 12.5V17.9688H6.45752V7.03125Z" fill="#F9F9F9"/>
</svg>
